<?xml version="1.0" encoding="UTF-8" standalone="no"?>
<svg xmlns:rdf="http://www.w3.org/1999/02/22-rdf-syntax-ns#" xmlns="http://www.w3.org/2000/svg" height="132" width="460" version="1.1" xmlns:cc="http://creativecommons.org/ns#" xmlns:dc="http://purl.org/dc/elements/1.1/" viewBox="0 0 121.70835 34.925024">
 <g>
  <g>
   <path style="color:#000000;paint-order:normal" d="m5.291669 9.525005v2.116673l16.93334-0.000007v-2.116671zm0.529167 0.5291678 15.87501-0.000007v1.058336l-15.87501 0.000007z"/>
   <path style="color:#000000;paint-order:normal" d="m5.291669 12.70001-5e-7 2.116669 11.64167-0.000009v-2.116669zm0.529167 0.529168 10.58334-0.000009v1.058334l-10.58334 0.000009z"/>
   <path style="color:#000000;paint-order:normal" d="m5.291669 15.87502v2.116667l14.81667-0.000008v-2.116667zm0.529167 0.529167 13.75834-0.000008v1.058333l-13.75834 0.000008z"/>
   <rect style="color:#000000;paint-order:normal" height="2.116667" width="11.64167" y="9.525004" x="25.40001"/>
   <rect style="color:#000000;paint-order:normal" height="2.116666" width="15.87501" y="12.7" x="25.40001"/>
  </g>
  <rect style="color:#000000;paint-order:normal" height="2.116667" width="11.64167" y="15.875" x="25.40001" stroke-width=".9999999"/>
  <rect style="color:#000000;paint-order:normal" height="2.116667" width="13.75834" y="19.05" x="25.40001"/>
  <g>
   <g aria-label="A" transform="translate(0 .01291771)">
    <path stroke-width=".2645834px" d="m23.42804 5.953026h-1.244369l-0.196371 0.5622396h-0.799951l1.143083-3.086117h0.948779l1.143083 3.086117h-0.79995zm-1.045932-0.572575h0.845427l-0.42169-1.227832z"/>
   </g>
   <g aria-label="B" transform="translate(-.1181164 .01291771)">
    <path stroke-width=".2645834px" d="m62.73758 4.623906q0.188102 0 0.285254-0.082682 0.09715-0.082682 0.09715-0.2439128 0-0.1591634-0.09715-0.2418457-0.09715-0.084749-0.285254-0.084749h-0.440284v0.6531902zm0.02687 1.349789q0.239779 0 0.359668-0.1012859 0.121957-0.1012858 0.121957-0.3059245 0-0.2005046-0.11989-0.2997234-0.119889-0.1012858-0.361735-0.1012858h-0.467155v0.8082196zm0.740007-1.11001q0.256315 0.074414 0.396875 0.2749187 0.14056 0.2005046 0.14056 0.4919597 0 0.4464844-0.30179 0.6655925-0.301791 0.2191082-0.917774 0.2191082h-1.32085v-3.086118h1.194759q0.642855 0 0.930176 0.1943034 0.289388 0.1943034 0.289388 0.6221844 0 0.2253092-0.10542 0.3844727-0.105419 0.1570964-0.305924 0.2335775z"/>
   </g>
   <g aria-label="C" transform="translate(0 .01291771)">
    <path stroke-width=".2645834px" d="m101.7843 6.345766q-0.21911 0.1136881-0.45682 0.1715657-0.23771 0.057878-0.49609 0.057878-0.77102 0-1.221634-0.429948-0.450618-0.4320151-0.450618-1.169955 0-0.7400066 0.450618-1.169955 0.450614-0.432015 1.221634-0.432015 0.25838 0 0.49609 0.057878t0.45682 0.1715658v0.6387208q-0.22117-0.1508952-0.43615-0.2211752-0.21497-0.07028-0.45268-0.07028-0.42582 0-0.66973 0.2728517-0.243913 0.2728516-0.243913 0.7524089 0 0.4774904 0.243913 0.750342 0.24391 0.2728516 0.66973 0.2728516 0.23771 0 0.45268-0.07028 0.21498-0.07028 0.43615-0.2211752z"/>
   </g>
  </g>
  <g>
   <path style="color:#000000;paint-order:normal" d="m55.03336 9.525004v2.116668l16.93334-0.000003v-2.116669zm0.529167 0.5291671 15.87501-0.000003v1.058333l-15.87501 0.000003z"/>
   <path style="color:#000000;paint-order:normal" d="m55.03336 12.70001-0.000001 2.11667 11.64167-0.000009v-2.11667zm0.529167 0.529168 10.58334-0.000009v1.058335l-10.58334 0.000009z"/>
   <path style="color:#000000;paint-order:normal" d="m55.03336 15.87501v2.116666l14.81667-0.000008v-2.116666zm0.529167 0.529167 13.75834-0.000008v1.058332l-13.75834 0.000008z"/>
   <rect style="color:#000000;paint-order:normal" height="2.116667" width="11.64167" y="19.05" x="55.03336"/>
   <rect style="color:#000000;paint-order:normal" height="2.116666" width="15.87501" y="22.225" x="55.03336"/>
   <rect style="color:#000000;paint-order:normal" height="2.116667" width="11.64168" y="25.4" x="55.03336"/>
  </g>
  <rect style="color:#000000;paint-order:normal" height="2.116667" width="13.75834" y="28.575" x="55.03335" stroke-width=".9999999"/>
  <g>
   <path style="color:#000000;paint-order:normal" d="m86.78337 9.525004v2.116669l16.93334-0.000004v-2.11667zm0.529167 0.5291671 15.87501-0.000004v1.058334l-15.87501 0.000004z"/>
   <path style="color:#000000;paint-order:normal" d="m86.78337 12.70001-0.000001 2.11667 11.64168-0.000009v-2.11667zm0.529167 0.529169 10.58334-0.000009v1.058334l-10.58334 0.000009z"/>
   <path style="color:#000000;paint-order:normal" d="m86.78337 15.87501v2.116666l14.81668-0.000008v-2.116666zm0.529167 0.529168 13.75835-0.000008v1.058332l-13.75835 0.000008z"/>
   <rect style="color:#000000;paint-order:normal" height="2.116667" width="11.64167" y="9.525002" x="104.775"/>
   <rect style="color:#000000;paint-order:normal" height="2.116666" width="15.87501" y="12.7" x="99.48337"/>
  </g>
  <rect style="color:#000000;paint-order:normal" height="2.116667" width="11.64167" y="15.875" x="102.6584" stroke-width=".9999999"/>
  <rect style="color:#000000;paint-order:normal" height="2.116667" width="13.75834" y="19.05" x="86.78336"/>
 </g>
</svg>
