<?xml version="1.0" encoding="UTF-8" standalone="no"?>
<svg xmlns:rdf="http://www.w3.org/1999/02/22-rdf-syntax-ns#" xmlns="http://www.w3.org/2000/svg" height="132" width="460" version="1.1" xmlns:cc="http://creativecommons.org/ns#" xmlns:dc="http://purl.org/dc/elements/1.1/" viewBox="0 0 121.70835 34.925024">
 <rect style="color:#000000;paint-order:normal" height="34.92501" width="121.7084" y="0" x="0" fill="#fff"/>
 <path style="color:#000000;paint-order:normal" d="m5.291669 9.525005v2.116673l16.93334-0.000007v-2.116671zm0.529167 0.5291678 15.87501-0.000007v1.058336l-15.87501 0.000007z"/>
 <path style="color:#000000;paint-order:normal" d="m5.291669 12.70001-5e-7 2.116669 11.64167-0.000009v-2.116669zm0.529167 0.529168 10.58334-0.000009v1.058334l-10.58334 0.000009z"/>
 <path style="color:#000000;paint-order:normal" d="m5.291669 15.87502v2.116667l14.81667-0.000008v-2.116667zm0.529167 0.529167 13.75834-0.000008v1.058333l-13.75834 0.000008z"/>
 <rect style="color:#000000;paint-order:normal" height="2.116667" width="11.64167" y="9.525004" x="25.40001"/>
 <rect style="color:#000000;paint-order:normal" height="2.116666" width="15.87501" y="12.7" x="25.40001"/>
 <rect style="color:#000000;paint-order:normal" height="2.116667" width="11.64167" y="15.875" x="25.40001" stroke-width=".9999999"/>
 <rect style="color:#000000;paint-order:normal" height="2.116667" width="13.75834" y="19.05" x="25.40001"/>
 <path style="color:#000000;paint-order:normal" d="m55.03336 9.525004v2.116668l16.93334-0.000003v-2.116669zm0.529167 0.5291671 15.87501-0.000003v1.058333l-15.87501 0.000003z"/>
 <path style="color:#000000;paint-order:normal" d="m55.03336 12.70001-0.000001 2.11667 11.64167-0.000009v-2.11667zm0.529167 0.529168 10.58334-0.000009v1.058335l-10.58334 0.000009z"/>
 <path style="color:#000000;paint-order:normal" d="m55.03336 15.87501v2.116666l14.81667-0.000008v-2.116666zm0.529167 0.529167 13.75834-0.000008v1.058332l-13.75834 0.000008z"/>
 <rect style="color:#000000;paint-order:normal" height="2.116667" width="11.64167" y="19.05" x="55.03336"/>
 <rect style="color:#000000;paint-order:normal" height="2.116666" width="15.87501" y="22.225" x="55.03336"/>
 <rect style="color:#000000;paint-order:normal" height="2.116667" width="11.64168" y="25.4" x="55.03336"/>
 <rect style="color:#000000;paint-order:normal" height="2.116667" width="13.75834" y="28.575" x="55.03335" stroke-width=".9999999"/>
 <path style="color:#000000;paint-order:normal" d="m86.78337 9.525004v2.116669l16.93334-0.000004v-2.11667zm0.529167 0.5291671 15.87501-0.000004v1.058334l-15.87501 0.000004z"/>
 <path style="color:#000000;paint-order:normal" d="m86.78337 12.70001-0.000001 2.11667 11.64168-0.000009v-2.11667zm0.529167 0.529169 10.58334-0.000009v1.058334l-10.58334 0.000009z"/>
 <path style="color:#000000;paint-order:normal" d="m86.78337 15.87501v2.116666l14.81668-0.000008v-2.116666zm0.529167 0.529168 13.75835-0.000008v1.058332l-13.75835 0.000008z"/>
 <rect style="color:#000000;paint-order:normal" height="2.116667" width="11.64167" y="9.525002" x="104.775"/>
 <rect style="color:#000000;paint-order:normal" height="2.116666" width="15.87501" y="12.7" x="99.48337"/>
 <rect style="color:#000000;paint-order:normal" height="2.116667" width="11.64167" y="15.875" x="102.6584" stroke-width=".9999999"/>
 <rect style="color:#000000;paint-order:normal" height="2.116667" width="13.75834" y="19.05" x="86.78336"/>
 <g>
  <g aria-label="A">
   <path stroke-width=".2645834px" d="m22.26209 4.918155c0.10209-0.335428 0.19445-0.695163 0.28195-1.050037h0.01945c0.09236 0.3500122 0.184728 0.7146082 0.286815 1.050036l0.11181 0.3889024h-0.81183zm-1.06462 1.691725h0.57363l0.247925-0.8604465h1.069482l0.247925 0.8604465h0.593076l-1.035452-3.179277h-0.661134z"/>
  </g>
  <g aria-label="B">
   <path stroke-width=".2645834px" d="m61.38336 6.614586h1.098649c0.700024 0 1.220181-0.3013994 1.220181-0.9576722 0-0.4180701-0.233341-0.6514115-0.60766-0.729192v-0.019445c0.281955-0.097226 0.442377-0.364596 0.442377-0.6903017 0-0.5833536-0.481267-0.7826661-1.13754-0.7826661h-1.01601zm0.56391-1.866732v-0.87503h0.413209c0.413209 0 0.622244 0.1166707 0.622244 0.4277926 0 0.2722317-0.18959 0.4472378-0.631966 0.4472378zm0 1.429216v-1.006285h0.476406c0.476405 0 0.729192 0.1458384 0.729192 0.4812667 0 0.3548735-0.262509 0.5250183-0.729192 0.5250183z"/>
  </g>
  <g aria-label="C">
   <path stroke-width=".2645834px" d="m100.271 6.668216c0.40348 0 0.71946-0.155561 0.98197-0.4569603l-0.28681-0.330567c-0.17015 0.1847286-0.38404 0.296538-0.65627 0.296538-0.549329 0-0.904202-0.4375152-0.904202-1.161846 0-0.7097469 0.37918-1.152123 0.889612-1.152123 0.24307 0 0.43752 0.092364 0.6028 0.2527865l0.3014-0.3402896c-0.19931-0.2236189-0.52016-0.4034862-0.91878-0.4034862-0.802113 0-1.453525 0.6173825-1.453525 1.657696 0 1.054898 0.636828 1.638251 1.443805 1.638251z"/>
  </g>
 </g>
</svg>
