<?xml version="1.0" encoding="UTF-8" standalone="no"?>
<svg xmlns:rdf="http://www.w3.org/1999/02/22-rdf-syntax-ns#" xmlns="http://www.w3.org/2000/svg" height="600" width="850" version="1.1" xmlns:cc="http://creativecommons.org/ns#" xmlns:dc="http://purl.org/dc/elements/1.1/" viewBox="0 0 224.89583 158.75006">
 <defs>
  <marker id="marker6108" refY="0.0" refX="0.0" overflow="visible" orient="auto">
   <path d="m5.77 0l-8.65 5v-10l8.65 5z" fill-rule="evenodd" transform="scale(-.8)" stroke="#000" stroke-width="1pt"/>
  </marker>
  <marker id="TriangleOutL" refY="0.0" refX="0.0" overflow="visible" orient="auto">
   <path d="m5.77 0l-8.65 5v-10l8.65 5z" fill-rule="evenodd" transform="scale(.8)" stroke="#000" stroke-width="1pt"/>
  </marker>
  <marker id="SquareM" refY="0" refX="0" overflow="visible" orient="auto">
   <path d="m-5-5v10h10v-10z" fill-rule="evenodd" transform="scale(.4)" stroke="#ff2a2a" stroke-width="1pt" fill="#ff2a2a"/>
  </marker>
  <marker id="marker7129" refY="0" refX="0" overflow="visible" orient="auto">
   <path d="m-2.5-1c0 2.76-2.24 5-5 5s-5-2.24-5-5 2.24-5 5-5 5 2.24 5 5z" fill-rule="evenodd" transform="matrix(.4 0 0 .4 2.96 .4)" stroke="#71c837" stroke-width="1pt" fill="#71c837"/>
  </marker>
  <marker id="DotM" refY="0" refX="0" overflow="visible" orient="auto">
   <path d="m-2.5-1c0 2.76-2.24 5-5 5s-5-2.24-5-5 2.24-5 5-5 5 2.24 5 5z" fill-rule="evenodd" transform="matrix(.4 0 0 .4 2.96 .4)" stroke="#71c837" stroke-width="1pt" fill="#71c837"/>
  </marker>
 </defs>
 <rect style="color:#000000;paint-order:normal" ry="0" height="158.4856" width="224.6313" stroke="#000" y=".1321724" x=".1322917" stroke-width=".2645834" fill="#fff"/>
 <g transform="matrix(3 0 0 3 26.45834 -824.8542)">
  <rect style="color:#000000;paint-order:normal" height="6.746887" width="12.43541" y="284.1677" x=".396875" fill="#87aade"/>
  <path style="color:#000000;paint-order:normal" d="m0.396875 290.9146s2.936521-2.64583 6.217708-2.64583c3.281188 0 6.217702 2.64584 6.217702 2.64584v5.68852h-12.4354z" fill="#87deaa"/>
  <circle style="color:#000000;paint-order:normal" cy="290.3854" cx="6.614583" r="3.43959" fill="#fff"/>
  <path style="color:#000000;paint-order:normal" d="m4.233333 287.7396s0.7648655-0.79375 2.366808-0.79375 2.395692 0.79375 2.395692 0.79375v0.52917h-4.7625z" fill="#d35f5f"/>
  <g transform="translate(-.79375 .7937386)">
   <circle stroke-linejoin="round" style="color:#000000;paint-order:normal" cx="7.408333" stroke="#000" cy="289.5917" r="3.439584" stroke-width=".79375" fill="none"/>
   <circle style="color:#000000;paint-order:normal" cx="7.408333" r="1.322903" cy="289.5917"/>
   <path stroke="#000" stroke-width=".7937499" d="m1.058334 290.1208s3.174998-2.64584 6.349999-2.64584 6.350001 2.64584 6.350001 2.64584" fill="none"/>
   <rect style="color:#000000;paint-order:normal" height="12.43541" width="12.43541" stroke="#000" stroke-linecap="round" y="283.374" x="1.190625" stroke-width=".79375" fill="none"/>
  </g>
 </g>
 <g transform="matrix(1 0 0 .8333349 0 22.04841)">
  <rect style="color:#000000;paint-order:normal" height="11.90624" width="39.68751" y="96.57298" x="26.45834" fill="#87aade"/>
  <rect style="color:#000000;paint-order:normal" height="11.90624" width="39.68751" y="108.4792" x="26.45834" fill="#d35f5f"/>
  <rect style="color:#000000;paint-order:normal" height="11.90624" width="39.68751" y="120.3854" x="26.45834" fill="#87deaa"/>
  <rect style="color:#000000;paint-order:normal" height="11.90624" width="39.68751" y="84.66677" x="26.45834"/>
 </g>
 <g stroke-width="1.191268">
  <g aria-label="#000000 " transform="matrix(.8394414 0 0 .8394414 15.96682 -34.03041)" fill="#fff">
   <path d="m26.34743 154.8936-0.245463 0.96635h0.524515l0.24288-0.96635h0.578776l-0.250631 0.96635h0.498677v0.55552h-0.63562l-0.191202 0.75706h0.529683v0.55552h-0.666626l-0.242879 0.96377h-0.571025l0.24288-0.96377h-0.529684l-0.242879 0.96377h-0.571025l0.24288-0.96377h-0.534851v-0.55552h0.671793l0.191203-0.75706h-0.565857v-0.55552h0.707967l0.242879-0.96635zm0.14211 1.52187h-0.529684l-0.191202 0.75706h0.529683z"/>
   <path d="m28.97518 156.7669q0-0.13694 0.09302-0.22996 0.09302-0.093 0.227376-0.093 0.136942 0 0.22996 0.093 0.09302 0.093 0.09302 0.22996 0 0.13436-0.09302 0.22738-0.09302 0.093-0.22996 0.093-0.134359 0-0.227376-0.0904-0.09302-0.093-0.09302-0.22996zm0.320394-1.3565q-0.26355 0-0.38499 0.32297-0.121439 0.32298-0.121439 1.03353 0 0.70797 0.121439 1.03095 0.12144 0.32297 0.38499 0.32297 0.266133 0 0.387573-0.32297 0.12144-0.32298 0.12144-1.03095 0-0.71055-0.12144-1.03353-0.12144-0.32297-0.387573-0.32297zm-1.273824 1.3565q0-1.00252 0.31781-1.5012 0.31781-0.50126 0.956014-0.50126 0.640787 0 0.958597 0.49868 0.317811 0.49868 0.317811 1.50378 0 1.00252-0.317811 1.5012-0.31781 0.49868-0.958597 0.49868-0.638204 0-0.956014-0.49868-0.31781-0.50126-0.31781-1.5012z"/>
   <path d="m32.15844 156.7669q0-0.13694 0.09302-0.22996 0.09302-0.093 0.227377-0.093 0.136942 0 0.22996 0.093 0.09302 0.093 0.09302 0.22996 0 0.13436-0.09302 0.22738-0.09302 0.093-0.22996 0.093-0.134359 0-0.227377-0.0904-0.09302-0.093-0.09302-0.22996zm0.320394-1.3565q-0.26355 0-0.38499 0.32297-0.121439 0.32298-0.121439 1.03353 0 0.70797 0.121439 1.03095 0.12144 0.32297 0.38499 0.32297 0.266133 0 0.387573-0.32297 0.121439-0.32298 0.121439-1.03095 0-0.71055-0.121439-1.03353-0.12144-0.32297-0.387573-0.32297zm-1.273824 1.3565q0-1.00252 0.31781-1.5012 0.31781-0.50126 0.956014-0.50126 0.640787 0 0.958597 0.49868t0.31781 1.50378q0 1.00252-0.31781 1.5012t-0.958597 0.49868q-0.638204 0-0.956014-0.49868-0.31781-0.50126-0.31781-1.5012z"/>
   <path d="m35.34171 156.7669q0-0.13694 0.09302-0.22996 0.09302-0.093 0.227377-0.093 0.136942 0 0.22996 0.093 0.09302 0.093 0.09302 0.22996 0 0.13436-0.09302 0.22738-0.09302 0.093-0.22996 0.093-0.134359 0-0.227377-0.0904-0.09302-0.093-0.09302-0.22996zm0.320394-1.3565q-0.26355 0-0.38499 0.32297-0.121439 0.32298-0.121439 1.03353 0 0.70797 0.121439 1.03095 0.12144 0.32297 0.38499 0.32297 0.266133 0 0.387573-0.32297 0.121439-0.32298 0.121439-1.03095 0-0.71055-0.121439-1.03353-0.12144-0.32297-0.387573-0.32297zm-1.273824 1.3565q0-1.00252 0.31781-1.5012 0.31781-0.50126 0.956014-0.50126 0.640787 0 0.958597 0.49868t0.31781 1.50378q0 1.00252-0.31781 1.5012t-0.958597 0.49868q-0.638204 0-0.956014-0.49868-0.31781-0.50126-0.31781-1.5012z"/>
   <path d="m38.52498 156.7669q0-0.13694 0.09302-0.22996 0.09302-0.093 0.227376-0.093 0.136943 0 0.22996 0.093 0.09302 0.093 0.09302 0.22996 0 0.13436-0.09302 0.22738-0.09302 0.093-0.22996 0.093-0.134358 0-0.227376-0.0904-0.09302-0.093-0.09302-0.22996zm0.320394-1.3565q-0.263549 0-0.384989 0.32297-0.12144 0.32298-0.12144 1.03353 0 0.70797 0.12144 1.03095 0.12144 0.32297 0.384989 0.32297 0.266134 0 0.387573-0.32297 0.12144-0.32298 0.12144-1.03095 0-0.71055-0.12144-1.03353-0.121439-0.32297-0.387573-0.32297zm-1.273824 1.3565q0-1.00252 0.31781-1.5012 0.31781-0.50126 0.956014-0.50126 0.640788 0 0.958598 0.49868t0.31781 1.50378q0 1.00252-0.31781 1.5012t-0.958598 0.49868q-0.638204 0-0.956014-0.49868-0.31781-0.50126-0.31781-1.5012z"/>
   <path d="m41.70825 156.7669q0-0.13694 0.09302-0.22996 0.09302-0.093 0.227376-0.093 0.136942 0 0.22996 0.093 0.09302 0.093 0.09302 0.22996 0 0.13436-0.09302 0.22738-0.09302 0.093-0.22996 0.093-0.134359 0-0.227376-0.0904-0.09302-0.093-0.09302-0.22996zm0.320394-1.3565q-0.26355 0-0.38499 0.32297-0.121439 0.32298-0.121439 1.03353 0 0.70797 0.121439 1.03095 0.12144 0.32297 0.38499 0.32297 0.266133 0 0.387573-0.32297 0.12144-0.32298 0.12144-1.03095 0-0.71055-0.12144-1.03353-0.12144-0.32297-0.387573-0.32297zm-1.273824 1.3565q0-1.00252 0.31781-1.5012 0.31781-0.50126 0.956014-0.50126 0.640788 0 0.958598 0.49868t0.31781 1.50378q0 1.00252-0.31781 1.5012t-0.958598 0.49868q-0.638204 0-0.956014-0.49868-0.31781-0.50126-0.31781-1.5012z"/>
   <path d="m44.89152 156.7669q0-0.13694 0.09302-0.22996 0.09302-0.093 0.227376-0.093 0.136943 0 0.229961 0.093 0.09302 0.093 0.09302 0.22996 0 0.13436-0.09302 0.22738-0.09302 0.093-0.229961 0.093-0.134358 0-0.227376-0.0904-0.09302-0.093-0.09302-0.22996zm0.320393-1.3565q-0.263549 0-0.384989 0.32297-0.12144 0.32298-0.12144 1.03353 0 0.70797 0.12144 1.03095 0.12144 0.32297 0.384989 0.32297 0.266134 0 0.387574-0.32297 0.121439-0.32298 0.121439-1.03095 0-0.71055-0.121439-1.03353-0.12144-0.32297-0.387574-0.32297zm-1.273823 1.3565q0-1.00252 0.31781-1.5012 0.31781-0.50126 0.956013-0.50126 0.640788 0 0.958598 0.49868t0.31781 1.50378q0 1.00252-0.31781 1.5012t-0.958598 0.49868q-0.638203 0-0.956013-0.49868-0.31781-0.50126-0.31781-1.5012z"/>
  </g>
  <g aria-label="#87aade" transform="matrix(.8394414 0 0 .8394414 15.96684 -34.10318)">
   <path d="m26.29704 166.8464-0.245463 0.96635h0.524516l0.242879-0.96635h0.578776l-0.250631 0.96635h0.49867v0.55552h-0.63562l-0.191203 0.75706h0.529683v0.55552h-0.666625l-0.24288 0.96377h-0.571024l0.242879-0.96377h-0.529683l-0.24288 0.96377h-0.57105l0.242879-0.96377h-0.534851v-0.55552h0.671794l0.191202-0.75706h-0.565856v-0.55552h0.707967l0.242879-0.96635zm0.14211 1.52187h-0.529683l-0.191203 0.75706h0.529684z"/>
   <path d="m29.24518 168.9238q-0.255798 0-0.413411 0.16278-0.157613 0.1602-0.157613 0.42633 0 0.26614 0.157613 0.42892t0.413411 0.16278q0.255799 0 0.413412-0.16537 0.160197-0.16536 0.160197-0.42633 0-0.26613-0.157614-0.42633-0.157613-0.16278-0.415995-0.16278zm-0.565857-0.32298q-0.291971-0.10076-0.444417-0.31522-0.152445-0.21704-0.152445-0.52968 0-0.4806 0.312642-0.75965t0.850077-0.27905q0.540019 0 0.852661 0.27905 0.312643 0.27905 0.312643 0.75965 0 0.31005-0.149862 0.52709-0.149862 0.21446-0.436666 0.31781 0.320394 0.0982 0.501262 0.3514 0.180867 0.25322 0.180867 0.6072 0 0.55552-0.328145 0.85783-0.328146 0.30231-0.93276 0.30231-0.60203 0-0.930175-0.30231-0.328146-0.30231-0.328146-0.85783 0-0.35656 0.183452-0.60978 0.183451-0.25321 0.509012-0.34882zm0.0801-0.78289q0 0.22737 0.129191 0.36173 0.131775 0.13178 0.356567 0.13178 0.227377 0 0.356568-0.13178 0.131774-0.13436 0.131774-0.36173 0-0.2248-0.131774-0.35399-0.129191-0.13177-0.356568-0.13177-0.222208 0-0.353983 0.13177-0.131775 0.13178-0.131775 0.35399z"/>
   <path d="m31.18564 166.787h2.439127v0.54002l-1.307413 3.31763h-0.77773l1.255737-3.18585h-1.60973z"/>
   <path d="m35.82876 169.2855q-0.423747 0-0.591695 0.10852t-0.167948 0.37207q0 0.19637 0.116272 0.31264t0.315226 0.11627q0.299723 0 0.465088-0.22479 0.165364-0.22738 0.165364-0.63304v-0.0517zm1.054199-0.29197v1.65106h-0.751892v-0.32298q-0.136942 0.1912-0.351399 0.29456-0.214458 0.10335-0.47284 0.10335-0.49351 0-0.769978-0.26097-0.273886-0.26096-0.273886-0.72864 0-0.50642 0.328146-0.74672 0.328145-0.24288 1.015442-0.24288h0.524515v-0.12661q0-0.18345-0.134358-0.27646-0.131775-0.0956-0.390157-0.0956-0.271302 0-0.5271 0.0698-0.253215 0.0672-0.529683 0.21704v-0.64596q0.25063-0.10335 0.509012-0.15244 0.258383-0.0491 0.547771-0.0491 0.705383 0 0.989603 0.28681 0.286804 0.2868 0.286804 1.02578z"/>
   <path d="m39.01203 169.2855q-0.423747 0-0.591695 0.10852-0.167949 0.10852-0.167949 0.37207 0 0.19637 0.116272 0.31264t0.315226 0.11627q0.299724 0 0.465088-0.22479 0.165365-0.22738 0.165365-0.63304v-0.0517zm1.054199-0.29197v1.65106h-0.751892v-0.32298q-0.136943 0.1912-0.3514 0.29456-0.214457 0.10335-0.472839 0.10335-0.49351 0-0.769979-0.26097-0.273885-0.26096-0.273885-0.72864 0-0.50642 0.328145-0.74672 0.328146-0.24288 1.015442-0.24288h0.524516v-0.12661q0-0.18345-0.134359-0.27646-0.131775-0.0956-0.390157-0.0956-0.271301 0-0.527099 0.0698-0.253215 0.0672-0.529684 0.21704v-0.64596q0.250631-0.10335 0.509013-0.15244 0.258382-0.0491 0.54777-0.0491 0.705383 0 0.989604 0.28681 0.286804 0.2868 0.286804 1.02578z"/>
   <path d="m42.43042 168.1616v-1.53738h0.754476v4.02043h-0.75448v-0.42892q-0.12144 0.25063-0.315226 0.37724-0.191203 0.12661-0.452169 0.12661-0.496094 0-0.769979-0.39791t-0.273885-1.12138q0-0.7338 0.276469-1.12654 0.279053-0.39275 0.793233-0.39275 0.232544 0 0.415996 0.12144 0.186035 0.11886 0.325561 0.35916zm-1.054199 1.04386q0 0.41858 0.139526 0.65629 0.139527 0.23771 0.38499 0.23771t0.387573-0.23771 0.14211-0.65629-0.14211-0.65629-0.387573-0.23771-0.38499 0.23771q-0.139526 0.23771-0.139526 0.65629z"/>
   <path d="m46.41726 170.5025q-0.26355 0.10852-0.537435 0.16278-0.273885 0.0543-0.578776 0.0543-0.726054 0-1.111043-0.38757-0.382405-0.39016-0.382405-1.12138 0-0.70797 0.369486-1.1188t1.00769-0.41083q0.643372 0 0.997355 0.38241 0.356568 0.37982 0.356568 1.07229v0.30747h-1.961121q0.0026 0.34107 0.201538 0.50901 0.198955 0.16795 0.594279 0.16795 0.260966 0 0.514181-0.0749 0.253214-0.0749 0.529683-0.23771zm-0.640788-1.62781q-0.0052-0.29972-0.155029-0.45217-0.147278-0.15503-0.436666-0.15503-0.260966 0-0.415995 0.1602-0.155029 0.15761-0.183451 0.44958z"/>
  </g>
  <g aria-label="#d35f5f " transform="matrix(.8394414 0 0 .8394414 15.96682 -34.17588)">
   <path d="m26.38231 178.7526-0.245463 0.96635h0.524515l0.242879-0.96635h0.578776l-0.25063 0.96635h0.498677v0.55552h-0.63562l-0.191203 0.75706h0.529684v0.55552h-0.666626l-0.242879 0.96377h-0.571025l0.242879-0.96377h-0.529683l-0.242879 0.96377h-0.571025l0.24288-0.96377h-0.534851v-0.55552h0.671793l0.191203-0.75706h-0.565857v-0.55552h0.707967l0.242879-0.96635zm0.14211 1.52187h-0.529684l-0.191202 0.75706h0.529683z"/>
   <path d="m29.78261 180.0678v-1.53738h0.754476v4.02043h-0.75448v-0.42892q-0.121439 0.25063-0.315226 0.37724-0.191203 0.12661-0.452169 0.12661-0.496093 0-0.769978-0.39791t-0.273885-1.12138q0-0.7338 0.276469-1.12654 0.279052-0.39275 0.793233-0.39275 0.232544 0 0.415995 0.12144 0.186035 0.11886 0.325561 0.35916zm-1.054199 1.04386q0 0.41858 0.139527 0.65629 0.139526 0.23771 0.384989 0.23771t0.387573-0.23771 0.14211-0.65629-0.14211-0.65629-0.387573-0.23771-0.384989 0.23771q-0.139527 0.23771-0.139527 0.65629z"/>
   <path d="m32.3406 180.8249h-0.408243v-0.67179h0.40824q0.284221 0 0.43925-0.1111 0.157613-0.11369 0.157613-0.31781 0-0.21446-0.157613-0.33332-0.155029-0.12144-0.43925-0.12144-0.217041 0-0.465087 0.0543-0.248047 0.0543-0.514181 0.15762v-0.69247q0.266134-0.0801 0.524516-0.12144 0.258382-0.0439 0.496094-0.0439 0.609781 0 0.950846 0.26613 0.341064 0.26614 0.341064 0.73381 0 0.34365-0.19637 0.56327-0.196371 0.21704-0.560689 0.28422 0.413411 0.0724 0.630452 0.33073 0.217041 0.2558 0.217041 0.67438 0 0.56069-0.359151 0.85524-0.359151 0.29456-1.043864 0.29456-0.291972 0-0.576192-0.0491-0.281637-0.0491-0.540019-0.14211v-0.70797q0.242879 0.12144 0.524516 0.18603 0.281636 0.062 0.591695 0.062t0.490926-0.14211q0.180868-0.1447 0.180868-0.38758 0-0.29714-0.180868-0.45733-0.180867-0.16279-0.511597-0.16279z"/>
   <path d="m34.60402 178.6932h2.095479v0.6718h-1.477946v0.71571q0.09302-0.0362 0.198955-0.0517 0.105936-0.0181 0.224792-0.0181 0.573608 0 0.930176 0.36174 0.356567 0.36173 0.356567 0.94051 0 0.6072-0.387573 0.96118-0.384989 0.3514-1.051615 0.3514-0.248047 0-0.501262-0.0413-0.253214-0.0413-0.516764-0.12403v-0.68729q0.214457 0.10593 0.43925 0.16019 0.227376 0.0517 0.454752 0.0517 0.403076 0 0.612366-0.17053 0.209289-0.17312 0.209289-0.50126 0-0.30231-0.209289-0.48318-0.206706-0.18345-0.552938-0.18345-0.204122 0-0.410827 0.0517-0.204122 0.0491-0.413412 0.14986z"/>
   <path d="m39.19806 179.4038v0.25322h0.888835v0.58136h-0.88884v2.31252h-0.75706v-2.31252h-0.7028v-0.58136h0.7028v-0.20154q0-0.52193 0.217041-0.72347t0.806152-0.20154h0.622701v0.58136h-0.591695q-0.170533 0-0.232544 0.062-0.05943 0.062-0.0646 0.22996z"/>
   <path d="m40.97056 178.6932h2.095479v0.6718h-1.477945v0.71571q0.09302-0.0362 0.198954-0.0517 0.105937-0.0181 0.224792-0.0181 0.573609 0 0.930176 0.36174 0.356567 0.36173 0.356567 0.94051 0 0.6072-0.387573 0.96118-0.384989 0.3514-1.051615 0.3514-0.248047 0-0.501261-0.0413-0.253215-0.0413-0.516765-0.12403v-0.68729q0.214457 0.10593 0.43925 0.16019 0.227376 0.0517 0.454752 0.0517 0.403077 0 0.612366-0.17053 0.20929-0.17312 0.20929-0.50126 0-0.30231-0.20929-0.48318-0.206706-0.18345-0.552938-0.18345-0.204122 0-0.410827 0.0517-0.204122 0.0491-0.413412 0.14986z"/>
   <path d="m45.5646 179.4038v0.25322h0.888835v0.58136h-0.88884v2.31252h-0.757059v-2.31252h-0.7028v-0.58136h0.7028v-0.20154q0-0.52193 0.217041-0.72347t0.806152-0.20154h0.622701v0.58136h-0.59169q-0.170532 0-0.232544 0.062-0.05943 0.062-0.0646 0.22996z"/>
  </g>
  <g aria-label="#87deaa  " transform="matrix(.8394414 0 0 .8394414 15.96683 -34.24862)">
   <path d="m26.35001 190.6589-0.245463 0.96635h0.524516l0.242879-0.96635h0.578776l-0.25063 0.96635h0.498677v0.55552h-0.63562l-0.191203 0.75706h0.529684v0.55552h-0.66664l-0.242879 0.96377h-0.571025l0.242879-0.96377h-0.52969l-0.242879 0.96377h-0.571025l0.242879-0.96377h-0.534851v-0.55552h0.671794l0.191203-0.75706h-0.565857v-0.55552h0.707967l0.242879-0.96635zm0.142111 1.52187h-0.529684l-0.191203 0.75706h0.529684z"/>
   <path d="m29.29815 192.7363q-0.255799 0-0.413412 0.16278-0.157613 0.1602-0.157613 0.42633 0 0.26614 0.157613 0.42892t0.413412 0.16278q0.255798 0 0.413411-0.16537 0.160197-0.16536 0.160197-0.42633 0-0.26613-0.157613-0.42633-0.157613-0.16278-0.415995-0.16278zm-0.565857-0.32298q-0.291972-0.10076-0.444418-0.31522-0.152445-0.21704-0.152445-0.52968 0-0.4806 0.312642-0.75965 0.312643-0.27905 0.850078-0.27905 0.540018 0 0.852661 0.27905 0.312642 0.27905 0.312642 0.75965 0 0.31005-0.149862 0.52709-0.149861 0.21446-0.436666 0.31781 0.320394 0.0982 0.501262 0.3514 0.180867 0.25322 0.180867 0.6072 0 0.55552-0.328145 0.85783t-0.932759 0.30231q-0.602031 0-0.930176-0.30231t-0.328145-0.85783q0-0.35656 0.183451-0.60978 0.183451-0.25321 0.509013-0.34882zm0.0801-0.78289q0 0.22737 0.129191 0.36173 0.131775 0.13178 0.356568 0.13178 0.227376 0 0.356567-0.13178 0.131775-0.13436 0.131775-0.36173 0-0.2248-0.131775-0.35399-0.129191-0.13177-0.356567-0.13177-0.222209 0-0.353984 0.13177-0.131775 0.13178-0.131775 0.35399z"/>
   <path d="m31.2386 190.5995h2.439128v0.54002l-1.307414 3.31763h-0.77773l1.255737-3.18585h-1.60973z"/>
   <path d="m36.11685 191.9741v-1.53738h0.754476v4.02043h-0.75448v-0.42892q-0.121439 0.25063-0.315226 0.37724-0.191203 0.12661-0.452169 0.12661-0.496093 0-0.769979-0.39791-0.273885-0.39791-0.273885-1.12138 0-0.7338 0.276469-1.12654 0.279053-0.39275 0.793233-0.39275 0.232544 0 0.415996 0.12144 0.186035 0.11886 0.325561 0.35916zm-1.054199 1.04386q0 0.41858 0.139526 0.65629 0.139527 0.23771 0.38499 0.23771t0.387573-0.23771 0.14211-0.65629-0.14211-0.65629-0.387573-0.23771-0.38499 0.23771q-0.139526 0.23771-0.139526 0.65629z"/>
   <path d="m40.10369 194.315q-0.26355 0.10852-0.537435 0.16278-0.273885 0.0543-0.578776 0.0543-0.726053 0-1.111043-0.38757-0.382405-0.39016-0.382405-1.12138 0-0.70797 0.369486-1.1188 0.369487-0.41083 1.00769-0.41083 0.643372 0 0.997355 0.38241 0.356568 0.37982 0.356568 1.07229v0.30747h-1.961121q0.0026 0.34107 0.201538 0.50901 0.198955 0.16795 0.594279 0.16795 0.260966 0 0.514181-0.0749 0.253214-0.0749 0.529683-0.23771zm-0.640788-1.62781q-0.0052-0.29972-0.155029-0.45217-0.147278-0.15503-0.436666-0.15503-0.260966 0-0.415995 0.1602-0.155029 0.15761-0.183451 0.44958z"/>
   <path d="m42.24826 193.098q-0.423747 0-0.591695 0.10852-0.167949 0.10852-0.167949 0.37207 0 0.19637 0.116272 0.31264t0.315226 0.11627q0.299724 0 0.465088-0.22479 0.165365-0.22738 0.165365-0.63304v-0.0517zm1.054199-0.29197v1.65106h-0.751892v-0.32298q-0.136943 0.1912-0.3514 0.29456-0.214457 0.10335-0.472839 0.10335-0.49351 0-0.769979-0.26097-0.273885-0.26096-0.273885-0.72864 0-0.50642 0.328145-0.74672 0.328145-0.24288 1.015442-0.24288h0.524516v-0.12661q0-0.18345-0.134359-0.27646-0.131775-0.0956-0.390157-0.0956-0.271301 0-0.5271 0.0698-0.253214 0.0672-0.529683 0.21704v-0.646q0.250631-0.10335 0.509013-0.15244 0.258382-0.0491 0.54777-0.0491 0.705383 0 0.989604 0.28681 0.286804 0.2868 0.286804 1.02578z"/>
   <path d="m45.43153 193.098q-0.423747 0-0.591695 0.10852t-0.167948 0.37207q0 0.19637 0.116272 0.31264t0.315226 0.11627q0.299723 0 0.465088-0.22479 0.165364-0.22738 0.165364-0.63304v-0.0517zm1.054199-0.29197v1.65106h-0.751892v-0.32298q-0.136942 0.1912-0.351399 0.29456-0.214458 0.10335-0.47284 0.10335-0.49351 0-0.769979-0.26097-0.273885-0.26096-0.273885-0.72864 0-0.50642 0.328146-0.74672 0.328145-0.24288 1.015442-0.24288h0.524515v-0.12661q0-0.18345-0.134358-0.27646-0.131775-0.0956-0.390157-0.0956-0.271302 0-0.5271 0.0698-0.253215 0.0672-0.529683 0.21704v-0.646q0.25063-0.10335 0.509012-0.15244 0.258383-0.0491 0.547771-0.0491 0.705383 0 0.989603 0.28681 0.286804 0.2868 0.286804 1.02578z"/>
  </g>
 </g>
 <g stroke-width=".2645844" transform="matrix(1 0 0 .9999971 -2.248934 -2.380837)">
  <path d="m145.5095 137.0831h1.63917v0.3514h-1.25677v0.75654q0.0909-0.031 0.1819-0.0455 0.091-0.0165 0.18191-0.0165 0.51676 0 0.81855 0.28319t0.30179 0.76688q0 0.49816-0.31006 0.77514-0.31006 0.27492-0.87436 0.27492-0.19431 0-0.39688-0.0331-0.2005-0.0331-0.41548-0.0992v-0.41961q0.18604 0.10128 0.38448 0.15089 0.19843 0.0496 0.41961 0.0496 0.3576 0 0.56637-0.1881 0.20878-0.1881 0.20878-0.51056t-0.20878-0.51056q-0.20877-0.18811-0.56637-0.18811-0.16743 0-0.33486 0.0372-0.16537 0.0372-0.339 0.11576z"/>
  <path d="m149.0938 137.358q-0.32246 0-0.48576 0.31833-0.16123 0.31626-0.16123 0.95291 0 0.63459 0.16123 0.95292 0.1633 0.31626 0.48576 0.31626 0.32452 0 0.48575-0.31626 0.1633-0.31833 0.1633-0.95292 0-0.63665-0.1633-0.95291-0.16123-0.31832-0.48575-0.31832zm0-0.33073q0.51883 0 0.79168 0.41135 0.27492 0.40928 0.27492 1.19062 0 0.77928-0.27492 1.19063-0.27285 0.40928-0.79168 0.40928t-0.79375-0.40928q-0.27286-0.41135-0.27286-1.19063 0-0.78134 0.27286-1.19062 0.27492-0.41135 0.79375-0.41135z"/>
 </g>
 <circle stroke-linejoin="round" style="color:#000000;paint-order:normal" stroke-width="6.350005" stroke="#4d4d4d" cy="79.37504" cx="145.5209" r="27.51669" fill="none"/>
 <circle r="10.58324" style="color:#000000;paint-order:normal" cy="79.37499" cx="145.5209" stroke-width="8.000006" fill="#4d4d4d"/>
 <g fill="none">
  <rect style="color:#000000;paint-order:normal" height="99.48341" width="99.48341" stroke="#4d4d4d" stroke-linecap="round" y="29.63334" x="95.77919" stroke-width="6.349999"/>
  <circle stroke-linejoin="round" style="color:#000000;paint-order:normal" stroke-width=".3527780" stroke="#ff2a2a" cy="79.37497" cx="145.5209" r="27.51669"/>
  <path d="m94.72086 83.60778s25.4-21.16674 50.80003-21.16674 50.80005 21.16674 50.80005 21.16674" stroke="#1a1a1a" stroke-width="6.350005"/>
  <path marker-end="url(#DotM)" d="m120.1209 62.44162h50.80004" marker-start="url(#marker7129)" stroke="#71c837" stroke-width=".3527780"/>
  <path marker-end="url(#SquareM)" d="m94.72086 83.60778s25.4-21.16674 50.80003-21.16674 50.80005 21.16674 50.80005 21.16674" marker-start="url(#SquareM)" marker-mid="url(#SquareM)" stroke="#ff2a2a" stroke-width=".3527780"/>
  <path opacity=".5" d="m145.5208 26.45832v105.8334m-52.91661-52.91671h105.8333" stroke="#000" stroke-width=".2645834px"/>
  <g stroke="#000">
   <g stroke-width=".2645834">
    <path marker-end="url(#TriangleOutL)" d="m94.37205 140.3815h102.2974" marker-start="url(#marker6108)"/>
    <path opacity=".2" d="m92.60419 130.175 105.8334-0.00002m-105.8334-2.1166h105.8333m-105.8333-2.1167h105.8333m-105.8333-2.1167h105.8333m-105.8333-2.1166h105.8333m-105.8333-2.1167h105.8333m-105.8333-2.1167h105.8333m-105.8333-2.1166h105.8333m-105.8333-2.1167h105.8333m-105.8333-2.1167h105.8333m-105.8333-2.1166h105.8333m-105.8333-2.1167h105.8333m-105.8333-2.1167h105.8333m-105.8333-2.1166h105.8333m-105.8333-2.1167h105.8333m-105.8333-2.1167h105.8333m-105.8333-2.11667h105.8333m-105.8333-2.11667h105.8333m-105.8333-2.11666h105.8333m-105.8333-2.11667h105.8333m-105.8333-2.11667h105.8333m-105.8333-2.11666h105.8333m-105.8333-2.11667h105.8333m-105.8333-2.11668h105.8333m-105.8333-2.11666h105.8333m-105.8333-2.11667h105.8333m-105.8333-2.11667h105.8333m-105.8333-2.11666h105.8333m-105.8333-2.11667h105.8333m-105.8333-2.11667h105.8333m-105.8333-2.11666h105.8333m-105.8333-2.11667h105.8333m-105.8333-2.11667h105.8333m-105.8333-2.11666h105.8333m-105.8333-2.11667h105.8333m-105.8333-2.11667h105.8333m-105.8333-2.11666h105.8333m-105.8333-2.11667h105.8333m-105.8333-2.11667h105.8333m-105.8333-2.11666h105.8333m-105.8333-2.11667h105.8333m-105.8333-2.11667h105.8333m-105.8333-2.11666h105.8333m-105.8333-2.11667h105.8333m-105.8333-2.11667h105.8333m-105.8333-2.11666h105.8333m-105.8333-2.11667h105.8333m-105.8333-2.11667h105.8333m-105.8333-2.11666h105.8333m-2.11667-2.116666 0.00003 105.8334m-2.1166-105.8334v105.8334m-2.1166-105.8334v105.8334m-2.1168-105.8334v105.8334m-2.1166-105.8334v105.8334m-2.1166-105.8334v105.8334m-2.1168-105.8334v105.8334m-2.1166-105.8334v105.8334m-2.1166-105.8334v105.8334m-2.1168-105.8334v105.8334m-2.1166-105.8334v105.8334m-2.1166-105.8334v105.8334m-2.1168-105.8334v105.8334m-2.1166-105.8334v105.8334m-2.1166-105.8334v105.8334m-2.1168-105.8334v105.8334m-2.1166-105.8334v105.8334m-2.1166-105.8334v105.8334m-2.1168-105.8334v105.8334m-2.1166-105.8334v105.8334m-2.1166-105.8334v105.8334m-2.1168-105.8334v105.8334m-2.1166-105.8334v105.8334m-2.1166-105.8334v105.8334m-2.1168-105.8334v105.8334m-2.1166-105.8334v105.8334m-2.1166-105.8334v105.8334m-2.1168-105.8334v105.8334m-2.1166-105.8334v105.8334m-2.1166-105.8334v105.8334m-2.1168-105.8334v105.8334m-2.1166-105.8334v105.8334m-2.1166-105.8334v105.8334m-2.1168-105.8334v105.8334m-2.1166-105.8334v105.8334m-2.1166-105.8334v105.8334m-2.1168-105.8334v105.8334m-2.1166-105.8334v105.8334m-2.1166-105.8334v105.8334m-2.1168-105.8334v105.8334m-2.1166-105.8334v105.8334m-2.1166-105.8334v105.8334m-2.1168-105.8334v105.8334m-2.1166-105.8334v105.8334m-2.1166-105.8334v105.8334m-2.1168-105.8334v105.8334m-2.11657-105.8334v105.8334m-2.11667-105.8334v105.8334m-2.11667-105.8334v105.8334" stroke="#000500"/>
    <path d="m92.73647 132.2917v11.64167"/>
   </g>
   <path stroke-width=".2645834px" d="m198.3052 132.2917v11.64167"/>
  </g>
 </g>
</svg>
